<svg width="790.0150390625px" height="122.021240234375px" xmlns="http://www.w3.org/2000/svg" viewBox="-145.00751953125 13.9893798828125 790.0150390625 122.021240234375" style="background: rgba(0, 0, 0, 0);" preserveAspectRatio="xMidYMid"><defs><linearGradient id="editing-gradient-gradient" x1="0" x2="1" y1="0.5" y2="0.5" gradientUnits="objectBoundingBox"><stop offset="0" stop-color="#f0f"></stop><stop offset="1" stop-color="#0ff"></stop></linearGradient></defs><g><g transform="translate(-32.68999025225639, 104.75218772888184)"><path d="M26.11-42.69L26.11-42.69L26.11-42.69Q41.79-42.69 41.79-31.62L41.79-31.62L41.79-31.62Q41.79-25.54 37.89-21.89L37.89-21.89L37.89-21.89Q34.05-18.24 27.33-18.24L27.33-18.24L27.33-18.24Q24.19-18.24 21.76-20.03L21.76-20.03L21.76-20.03Q20.61-20.80 19.84-21.82L19.84-21.82L19.84-21.82Q24.51-21.82 26.98-24.67L26.98-24.67L26.98-24.67Q29.44-27.52 29.44-33.09L29.44-33.09L29.44-33.09Q29.44-38.66 23.94-38.66L23.94-38.66L22.40-38.66L22.40-38.66Q22.02-38.66 21.70-38.59L21.70-38.59L14.34 0L0.45 0L8.32-41.92L8.32-41.92Q15.17-42.56 19.14-42.62L19.14-42.62L19.14-42.62Q23.10-42.69 26.11-42.69ZM68.03-10.82L68.03-10.82L68.03-10.82Q69.63-9.73 69.63-7.33L69.63-7.33L69.63-7.33Q69.63-4.93 68.42-3.39L68.42-3.39L68.42-3.39Q67.20-1.86 65.22-0.83L65.22-0.83L65.22-0.83Q61.12 1.28 56.70 1.28L56.70 1.28L56.70 1.28Q52.29 1.28 49.70 0.32L49.70 0.32L49.70 0.32Q47.10-0.64 45.38-2.43L45.38-2.43L45.38-2.43Q41.98-5.82 41.98-12.03L41.98-12.03L41.98-12.03Q41.98-21.70 47.23-27.58L47.23-27.58L47.23-27.58Q52.86-33.92 62.66-33.92L62.66-33.92L62.66-33.92Q68.74-33.92 71.74-31.36L71.74-31.36L71.74-31.36Q73.98-29.44 73.98-26.30L73.98-26.30L73.98-26.30Q73.98-15.04 54.53-15.04L54.53-15.04L54.53-15.04Q54.27-13.38 54.27-11.97L54.27-11.97L54.27-11.97Q54.27-9.02 55.58-7.90L55.58-7.90L55.58-7.90Q56.90-6.78 59.33-6.78L59.33-6.78L59.33-6.78Q61.76-6.78 64.35-7.90L64.35-7.90L64.35-7.90Q66.94-9.02 68.03-10.82ZM54.98-17.79L54.98-17.79L54.98-17.79Q59.52-17.79 62.14-20.61L62.14-20.61L62.14-20.61Q64.77-23.30 64.77-27.58L64.77-27.58L64.77-27.58Q64.77-29.06 64.22-29.86L64.22-29.86L64.22-29.86Q63.68-30.66 62.59-30.66L62.59-30.66L62.59-30.66Q61.50-30.66 60.58-30.24L60.58-30.24L60.58-30.24Q59.65-29.82 58.69-28.42L58.69-28.42L58.69-28.42Q56.32-25.22 54.98-17.79ZM77.18-6.40L77.18-6.40L77.18-6.40Q77.18-8.13 78.08-12.48L78.08-12.48L81.47-29.76L77.70-29.76L77.95-31.68L77.95-31.68Q85.63-33.98 93.06-39.62L93.06-39.62L96.13-39.62L94.59-32.64L99.58-32.64L99.01-29.76L94.08-29.76L90.82-12.48L90.82-12.48Q89.98-8.51 89.98-7.17L89.98-7.17L89.98-7.17Q89.98-4.10 92.67-3.46L92.67-3.46L92.67-3.46Q92.03-1.28 89.73 0L89.73 0L89.73 0Q87.42 1.28 84.16 1.28L84.16 1.28L84.16 1.28Q80.90 1.28 79.04-0.77L79.04-0.77L79.04-0.77Q77.18-2.82 77.18-6.40ZM103.55-26.75L103.55-26.75L103.55-26.75Q105.73-29.82 109.02-31.87L109.02-31.87L109.02-31.87Q112.32-33.92 116.35-33.92L116.35-33.92L116.35-33.92Q120.38-33.92 122.30-32.64L122.30-32.64L134.85-33.92L130.50-9.34L130.50-9.34Q128.26 3.20 123.52 8.13L123.52 8.13L123.52 8.13Q118.98 12.80 110.14 12.80L110.14 12.80L110.14 12.80Q103.42 12.80 99.58 10.69L99.58 10.69L99.58 10.69Q95.74 8.58 95.74 5.06L95.74 5.06L95.74 5.06Q95.74 2.43 97.73 0.93L97.73 0.93L97.73 0.93Q99.71-0.58 102.78-0.58L102.78-0.58L102.78-0.58Q105.47-0.58 107.52 0.64L107.52 0.64L107.52 0.64Q108.74 1.28 109.31 2.18L109.31 2.18L109.31 2.18Q107.84 3.46 107.84 5.57L107.84 5.57L107.84 5.57Q107.84 8.32 110.40 8.32L110.40 8.32L110.40 8.32Q114.69 8.32 117.12-1.79L117.12-1.79L117.12-1.79Q117.82-4.54 118.40-7.30L118.40-7.30L118.40-7.30Q115.52-3.78 108.99-3.78L108.99-3.78L108.99-3.78Q104.45-3.78 101.82-5.95L101.82-5.95L101.82-5.95Q99.20-8.13 99.20-13.25L99.20-13.25L99.20-13.25Q99.20-16.45 100.29-20.06L100.29-20.06L100.29-20.06Q101.38-23.68 103.55-26.75ZM111.87-13.06L111.87-13.06L111.87-13.06Q111.87-8.70 114.11-8.70L114.11-8.70L114.11-8.70Q115.65-8.70 117.12-10.37L117.12-10.37L117.12-10.37Q118.27-11.71 118.72-13.70L118.72-13.70L121.98-30.14L121.98-30.14Q121.66-30.21 121.34-30.34L121.34-30.34L121.34-30.34Q120.70-30.59 119.87-30.59L119.87-30.59L119.87-30.59Q115.97-30.59 113.66-24.19L113.66-24.19L113.66-24.19Q111.87-19.20 111.87-13.06ZM157.38-17.98L157.38-17.98L157.38-17.98Q159.68-22.08 159.68-26.24L159.68-26.24L159.68-26.24Q159.68-28.99 157.70-28.99L157.70-28.99L157.70-28.99Q156.16-28.99 154.56-26.37L154.56-26.37L154.56-26.37Q152.90-23.74 152.38-20.35L152.38-20.35L149.06 0L135.81 1.28L142.34-32.64L152.90-33.92L151.74-27.46L151.74-27.46Q154.88-33.92 161.92-33.92L161.92-33.92L161.92-33.92Q165.63-33.92 167.65-32L167.65-32L167.65-32Q169.66-30.08 169.66-26.14L169.66-26.14L169.66-26.14Q169.66-22.21 167.07-19.71L167.07-19.71L167.07-19.71Q164.48-17.22 160.06-17.22L160.06-17.22L160.06-17.22Q158.14-17.22 157.38-17.98ZM173.47-1.92L173.47-1.92L173.47-1.92Q171.97-3.58 171.30-6.21L171.30-6.21L171.30-6.21Q170.62-8.83 170.62-13.12L170.62-13.12L170.62-13.12Q170.62-17.41 172.10-21.31L172.10-21.31L172.10-21.31Q173.57-25.22 176.26-28.03L176.26-28.03L176.26-28.03Q181.76-33.92 190.85-33.92L190.85-33.92L190.85-33.92Q194.11-33.92 196.48-32.83L196.48-32.83L207.42-33.92L202.69-8.96L202.69-8.96Q202.50-8.19 202.50-6.78L202.50-6.78L202.50-6.78Q202.50-5.38 203.36-4.48L203.36-4.48L203.36-4.48Q204.22-3.58 205.50-3.46L205.50-3.46L205.50-3.46Q204.86-1.28 202.53 0L202.53 0L202.53 0Q200.19 1.28 197.57 1.28L197.57 1.28L197.57 1.28Q194.94 1.28 193.18 0.29L193.18 0.29L193.18 0.29Q191.42-0.70 190.91-2.37L190.91-2.37L190.91-2.37Q189.89-0.77 187.71 0.26L187.71 0.26L187.71 0.26Q185.54 1.28 182.62 1.28L182.62 1.28L182.62 1.28Q179.71 1.28 177.34 0.51L177.34 0.51L177.34 0.51Q174.98-0.26 173.47-1.92ZM186.98-27.90L186.98-27.90L186.98-27.90Q186.24-26.75 185.60-24.80L185.60-24.80L185.60-24.80Q184.96-22.85 183.90-17.63L183.90-17.63L183.90-17.63Q182.85-12.42 182.85-8.70L182.85-8.70L182.85-8.70Q182.85-4.99 183.42-3.90L183.42-3.90L183.42-3.90Q184-2.82 185.02-2.82L185.02-2.82L185.02-2.82Q187.07-2.82 188.58-4.77L188.58-4.77L188.58-4.77Q190.08-6.72 190.66-10.18L190.66-10.18L194.05-28.93L194.05-28.93Q192.70-30.08 191.14-30.08L191.14-30.08L191.14-30.08Q189.57-30.08 188.64-29.57L188.64-29.57L188.64-29.57Q187.71-29.06 186.98-27.90ZM256.96 1.28L256.96 1.28L256.96 1.28Q249.22 1.28 249.22-4.74L249.22-4.74L249.22-4.74Q249.22-7.36 250.34-12.45L250.34-12.45L250.34-12.45Q251.46-17.54 251.84-19.58L251.84-19.58L251.84-19.58Q252.74-24.26 252.74-25.73L252.74-25.73L252.74-25.73Q252.74-28.99 250.30-28.99L250.30-28.99L250.30-28.99Q248.70-28.99 247.17-26.78L247.17-26.78L247.17-26.78Q245.63-24.58 244.93-20.16L244.93-20.16L240.96 0L228.48 1.28L231.94-16.13L231.94-16.13Q232.51-19.01 233.02-22.27L233.02-22.27L233.02-22.27Q233.54-25.54 233.54-26.05L233.54-26.05L233.54-26.05Q233.54-28.99 231.36-28.99L231.36-28.99L231.36-28.99Q229.89-28.99 228.29-26.82L228.29-26.82L228.29-26.82Q226.69-24.64 225.79-20.16L225.79-20.16L221.89 0L209.28 1.28L216-32.64L226.43-33.92L225.34-27.46L225.34-27.46Q227.01-30.91 230.08-32.42L230.08-32.42L230.08-32.42Q233.15-33.92 237.95-33.92L237.95-33.92L237.95-33.92Q240.70-33.92 242.50-32.58L242.50-32.58L242.50-32.58Q244.29-31.23 244.86-29.06L244.86-29.06L244.86-29.06Q245.95-31.30 248.74-32.61L248.74-32.61L248.74-32.61Q251.52-33.92 254.94-33.92L254.94-33.92L254.94-33.92Q258.37-33.92 260.06-33.18L260.06-33.18L260.06-33.18Q261.76-32.45 262.78-31.23L262.78-31.23L262.78-31.23Q264.51-28.99 264.51-24.90L264.51-24.90L264.51-24.90Q264.51-20.86 262.78-12.48L262.78-12.48L262.78-12.48Q261.89-8.38 261.89-6.88L261.89-6.88L261.89-6.88Q261.89-5.38 262.75-4.48L262.75-4.48L262.75-4.48Q263.62-3.58 264.90-3.46L264.90-3.46L264.90-3.46Q264.26-1.28 262.05 0L262.05 0L262.05 0Q259.84 1.28 256.96 1.28ZM307.97-37.12L307.97-37.12L307.97-37.12Q308.86-38.66 308.86-40.32L308.86-40.32L308.86-40.32Q308.86-43.26 307.07-43.26L307.07-43.26L307.07-43.26Q304.32-43.26 303.17-37.63L303.17-37.63L302.21-32.64L308.03-32.64L307.65-29.76L301.63-29.76L295.87 0L282.94 1.28L289.09-29.76L284.54-29.76L285.12-32.64L289.60-32.64L290.94-37.70L290.94-37.70Q292.10-42.37 297.02-44.54L297.02-44.54L297.02-44.54Q300.61-46.08 306.62-46.08L306.62-46.08L306.62-46.08Q312.64-46.08 315.33-44.54L315.33-44.54L315.33-44.54Q318.02-43.01 318.02-40.96L318.02-40.96L318.02-40.96Q318.02-38.91 316.42-37.63L316.42-37.63L316.42-37.63Q314.82-36.35 313.02-36.35L313.02-36.35L313.02-36.35Q309.50-36.35 307.97-37.12ZM309.73-1.92L309.73-1.92L309.73-1.92Q308.22-3.58 307.55-6.21L307.55-6.21L307.55-6.21Q306.88-8.83 306.88-13.12L306.88-13.12L306.88-13.12Q306.88-17.41 308.35-21.31L308.35-21.31L308.35-21.31Q309.82-25.22 312.51-28.03L312.51-28.03L312.51-28.03Q318.02-33.92 327.10-33.92L327.10-33.92L327.10-33.92Q330.37-33.92 332.74-32.83L332.74-32.83L343.68-33.92L338.94-8.96L338.94-8.96Q338.75-8.19 338.75-6.78L338.75-6.78L338.75-6.78Q338.75-5.38 339.62-4.48L339.62-4.48L339.62-4.48Q340.48-3.58 341.76-3.46L341.76-3.46L341.76-3.46Q341.12-1.28 338.78 0L338.78 0L338.78 0Q336.45 1.28 333.82 1.28L333.82 1.28L333.82 1.28Q331.20 1.28 329.44 0.29L329.44 0.29L329.44 0.29Q327.68-0.70 327.17-2.37L327.17-2.37L327.17-2.37Q326.14-0.77 323.97 0.26L323.97 0.26L323.97 0.26Q321.79 1.28 318.88 1.28L318.88 1.28L318.88 1.28Q315.97 1.28 313.60 0.51L313.60 0.51L313.60 0.51Q311.23-0.26 309.73-1.92ZM323.23-27.90L323.23-27.90L323.23-27.90Q322.50-26.75 321.86-24.80L321.86-24.80L321.86-24.80Q321.22-22.85 320.16-17.63L320.16-17.63L320.16-17.63Q319.10-12.42 319.10-8.70L319.10-8.70L319.10-8.70Q319.10-4.99 319.68-3.90L319.68-3.90L319.68-3.90Q320.26-2.82 321.28-2.82L321.28-2.82L321.28-2.82Q323.33-2.82 324.83-4.77L324.83-4.77L324.83-4.77Q326.34-6.72 326.91-10.18L326.91-10.18L330.30-28.93L330.30-28.93Q328.96-30.08 327.39-30.08L327.39-30.08L327.39-30.08Q325.82-30.08 324.90-29.57L324.90-29.57L324.90-29.57Q323.97-29.06 323.23-27.90ZM370.37-31.55L370.37-31.55L370.37-31.55Q372.48-33.92 376.13-33.92L376.13-33.92L376.13-33.92Q378.37-33.92 380.10-32.70L380.10-32.70L380.10-32.70Q381.82-31.49 381.82-29.22L381.82-29.22L381.82-29.22Q381.82-26.94 381.12-24.51L381.12-24.51L381.12-24.51Q380.42-22.08 379.33-19.58L379.33-19.58L379.33-19.58Q377.15-14.72 374.14-10.69L374.14-10.69L374.14-10.69Q369.92-4.86 365.86-1.79L365.86-1.79L365.86-1.79Q361.79 1.28 357.38 1.28L357.38 1.28L357.38 1.28Q353.79 1.28 351.62 0.45L351.62 0.45L351.62 0.45Q351.23-12.99 350.75-17.79L350.75-17.79L350.75-17.79Q350.27-22.59 349.89-25.22L349.89-25.22L349.89-25.22Q349.25-30.34 347.33-31.55L347.33-31.55L347.33-31.55Q348.80-32.83 350.24-33.38L350.24-33.38L350.24-33.38Q351.68-33.92 354.66-33.92L354.66-33.92L354.66-33.92Q357.63-33.92 359.74-31.58L359.74-31.58L359.74-31.58Q361.86-29.25 362.27-25.12L362.27-25.12L362.27-25.12Q362.69-20.99 362.69-16L362.69-16L362.69-16Q362.69-11.01 362.30-4.99L362.30-4.99L362.30-4.99Q364.29-6.40 366.40-10.69L366.40-10.69L366.40-10.69Q369.28-16.64 370.30-23.81L370.30-23.81L370.30-23.81Q370.62-25.98 370.62-28.29L370.62-28.29L370.62-28.29Q370.62-30.59 370.37-31.55ZM397.50 1.28L397.50 1.28L397.50 1.28Q383.42 1.28 383.42-11.97L383.42-11.97L383.42-11.97Q383.42-21.38 388.61-27.46L388.61-27.46L388.61-27.46Q394.11-33.92 403.65-33.92L403.65-33.92L403.65-33.92Q410.56-33.92 414.08-30.72L414.08-30.72L414.08-30.72Q417.60-27.52 417.60-20.80L417.60-20.80L417.60-20.80Q417.60-10.56 412.10-4.61L412.10-4.61L412.10-4.61Q406.72 1.28 397.50 1.28ZM399.17-26.56L399.17-26.56L399.17-26.56Q398.40-24.83 397.79-22.24L397.79-22.24L397.79-22.24Q397.18-19.65 396.42-15.55L396.42-15.55L396.42-15.55Q395.65-11.46 395.65-6.40L395.65-6.40L395.65-6.40Q395.65-4.74 396.19-3.65L396.19-3.65L396.19-3.65Q396.74-2.56 398.21-2.56L398.21-2.56L398.21-2.56Q399.68-2.56 400.61-3.26L400.61-3.26L400.61-3.26Q401.54-3.97 402.24-5.63L402.24-5.63L402.24-5.63Q403.52-8.58 404.54-14.05L404.54-14.05L404.54-14.05Q405.57-19.52 405.66-21.89L405.66-21.89L405.66-21.89Q405.76-24.26 405.76-26.02L405.76-26.02L405.76-26.02Q405.76-27.78 405.25-28.93L405.25-28.93L405.25-28.93Q404.74-30.08 403.30-30.08L403.30-30.08L403.30-30.08Q401.86-30.08 400.90-29.18L400.90-29.18L400.90-29.18Q399.94-28.29 399.17-26.56ZM441.41-17.98L441.41-17.98L441.41-17.98Q443.71-22.08 443.71-26.24L443.71-26.24L443.71-26.24Q443.71-28.99 441.73-28.99L441.73-28.99L441.73-28.99Q440.19-28.99 438.59-26.37L438.59-26.37L438.59-26.37Q436.93-23.74 436.42-20.35L436.42-20.35L433.09 0L419.84 1.28L426.37-32.64L436.93-33.92L435.78-27.46L435.78-27.46Q438.91-33.92 445.95-33.92L445.95-33.92L445.95-33.92Q449.66-33.92 451.68-32L451.68-32L451.68-32Q453.70-30.08 453.70-26.14L453.70-26.14L453.70-26.14Q453.70-22.21 451.10-19.71L451.10-19.71L451.10-19.71Q448.51-17.22 444.10-17.22L444.10-17.22L444.10-17.22Q442.18-17.22 441.41-17.98ZM470.08-3.52L470.08-3.52L470.08-3.52Q468.10 1.28 461.76 1.28L461.76 1.28L461.76 1.28Q458.50 1.28 456.45-0.96L456.45-0.96L456.45-0.96Q454.72-2.94 454.72-4.93L454.72-4.93L454.72-4.93Q454.72-10.11 457.09-20.22L457.09-20.22L459.46-32.64L472.45-33.92L468.54-13.70L468.54-13.70Q467.46-8.96 467.46-7.30L467.46-7.30L467.46-7.30Q467.46-3.65 470.08-3.52ZM460.61-41.54L460.61-41.54L460.61-41.54Q460.61-44.03 462.69-45.38L462.69-45.38L462.69-45.38Q464.77-46.72 467.78-46.72L467.78-46.72L467.78-46.72Q470.78-46.72 472.61-45.38L472.61-45.38L472.61-45.38Q474.43-44.03 474.43-41.54L474.43-41.54L474.43-41.54Q474.43-39.04 472.42-37.76L472.42-37.76L472.42-37.76Q470.40-36.48 467.39-36.48L467.39-36.48L467.39-36.48Q464.38-36.48 462.50-37.76L462.50-37.76L462.50-37.76Q460.61-39.04 460.61-41.54ZM476.54-6.40L476.54-6.40L476.54-6.40Q476.54-8.13 477.44-12.48L477.44-12.48L480.83-29.76L477.06-29.76L477.31-31.68L477.31-31.68Q484.99-33.98 492.42-39.62L492.42-39.62L495.49-39.62L493.95-32.64L498.94-32.64L498.37-29.76L493.44-29.76L490.18-12.48L490.18-12.48Q489.34-8.51 489.34-7.17L489.34-7.17L489.34-7.17Q489.34-4.10 492.03-3.46L492.03-3.46L492.03-3.46Q491.39-1.28 489.09 0L489.09 0L489.09 0Q486.78 1.28 483.52 1.28L483.52 1.28L483.52 1.28Q480.26 1.28 478.40-0.77L478.40-0.77L478.40-0.77Q476.54-2.82 476.54-6.40ZM512.32 1.28L512.32 1.28L512.32 1.28Q498.24 1.28 498.24-11.97L498.24-11.97L498.24-11.97Q498.24-21.38 503.42-27.46L503.42-27.46L503.42-27.46Q508.93-33.92 518.46-33.92L518.46-33.92L518.46-33.92Q525.38-33.92 528.90-30.72L528.90-30.72L528.90-30.72Q532.42-27.52 532.42-20.80L532.42-20.80L532.42-20.80Q532.42-10.56 526.91-4.61L526.91-4.61L526.91-4.61Q521.54 1.28 512.32 1.28ZM513.98-26.56L513.98-26.56L513.98-26.56Q513.22-24.83 512.61-22.24L512.61-22.24L512.61-22.24Q512-19.65 511.23-15.55L511.23-15.55L511.23-15.55Q510.46-11.46 510.46-6.40L510.46-6.40L510.46-6.40Q510.46-4.74 511.01-3.65L511.01-3.65L511.01-3.65Q511.55-2.56 513.02-2.56L513.02-2.56L513.02-2.56Q514.50-2.56 515.42-3.26L515.42-3.26L515.42-3.26Q516.35-3.97 517.06-5.63L517.06-5.63L517.06-5.63Q518.34-8.58 519.36-14.05L519.36-14.05L519.36-14.05Q520.38-19.52 520.48-21.89L520.48-21.89L520.48-21.89Q520.58-24.26 520.58-26.02L520.58-26.02L520.58-26.02Q520.58-27.78 520.06-28.93L520.06-28.93L520.06-28.93Q519.55-30.08 518.11-30.08L518.11-30.08L518.11-30.08Q516.67-30.08 515.71-29.18L515.71-29.18L515.71-29.18Q514.75-28.29 513.98-26.56ZM555.33-22.46L555.33-22.46L555.33-22.46Q556.22-24.83 556.22-26.88L556.22-26.88L556.22-26.88Q556.22-30.66 553.15-30.66L553.15-30.66L553.15-30.66Q551.55-30.66 550.24-29.22L550.24-29.22L550.24-29.22Q548.93-27.78 548.93-25.98L548.93-25.98L548.93-25.98Q548.93-24.70 549.95-23.68L549.95-23.68L549.95-23.68Q551.42-22.27 555.20-19.97L555.20-19.97L555.20-19.97Q558.98-17.66 560.42-15.78L560.42-15.78L560.42-15.78Q561.86-13.89 561.86-11.30L561.86-11.30L561.86-11.30Q561.86-8.70 560.61-6.34L560.61-6.34L560.61-6.34Q559.36-3.97 557.12-2.30L557.12-2.30L557.12-2.30Q552.32 1.28 544.64 1.28L544.64 1.28L544.64 1.28Q540.48 1.28 537.28-0.90L537.28-0.90L537.28-0.90Q534.08-3.01 534.08-5.50L534.08-5.50L534.08-5.50Q534.08-8 535.90-9.47L535.90-9.47L535.90-9.47Q537.73-10.94 540.42-10.94L540.42-10.94L540.42-10.94Q543.10-10.94 544.77-9.92L544.77-9.92L544.77-9.92Q543.94-7.81 543.94-6.40L543.94-6.40L543.94-6.40Q543.94-2.18 547.52-2.18L547.52-2.18L547.52-2.18Q549.06-2.18 550.08-3.14L550.08-3.14L550.08-3.14Q551.10-4.10 551.10-5.76L551.10-5.76L551.10-5.76Q551.10-9.02 545.60-12.48L545.60-12.48L545.60-12.48Q541.12-15.42 540.10-16.58L540.10-16.58L540.10-16.58Q538.37-18.62 538.37-21.18L538.37-21.18L538.37-21.18Q538.37-23.74 539.58-26.18L539.58-26.18L539.58-26.18Q540.80-28.61 543.04-30.34L543.04-30.34L543.04-30.34Q547.71-33.92 555.84-33.92L555.84-33.92L555.84-33.92Q560-33.92 562.46-32.26L562.46-32.26L562.46-32.26Q564.93-30.59 564.93-27.78L564.93-27.78L564.93-27.78Q564.93-24.96 563.23-23.36L563.23-23.36L563.23-23.36Q561.54-21.76 558.46-21.76L558.46-21.76L558.46-21.76Q556.35-21.76 555.33-22.46Z" fill="url(#editing-gradient-gradient)"></path></g></g><style>text {
  font-size: 64px;
  font-family: Arial Black;
  dominant-baseline: central;
  text-anchor: middle;
}</style></svg>